<svg xmlns="http://www.w3.org/2000/svg" xml:space="preserve" viewBox="0 0 496.158 496.158">
  <path fill="#4abc96" d="M248.082.003C111.07.003 0 111.063 0 248.085c0 137.001 111.07 248.07 248.082 248.07 137.006 0 248.076-111.069 248.076-248.07C496.158 111.062 385.088.003 248.082.003z"/>
	<path fill="#e0e0e2" d="M384.149 169.049c-4.687-8.149-9.8-9.907-16.064-13.437L262.15 106.106c-7.717-3.603-20.225-3.603-27.939 0l-105.936 49.506c-8.31 4.702-13.423 8.962-16.619 14.715-3.196 5.752-4.048 12.57-4.936 22.791v130.686c0 9.517 7.173 13.343 14.386 17.233l109.092 48.828c.477 0 11.846 2.889 18.238 2.889 6.392 0 17.526-2.889 17.526-2.889l109.092-48.828c6.966-3.57 14.386-7.716 14.386-17.233V193.119c-.231-10.008-.801-16.264-5.291-24.07z"/>
	<path fill="#fff" d="m230.952 225.638-104.488-46.767c-7.61 0-13.779 7.391-13.779 16.506v125.171c0 9.115 6.001 12.765 13.779 16.506l104.488 46.767c7.61 0 13.779-7.391 13.779-16.506V250.856c-.001-9.115-4.592-20.404-13.779-25.218zm138.743-46.767-104.488 46.767c-8.036 4.813-13.779 16.103-13.779 25.218v116.459c0 9.115 6.169 16.506 13.779 16.506l104.488-46.767c7.21-3.422 13.779-7.391 13.779-16.506V195.377c0-9.115-6.169-16.506-13.779-16.506zm-6.674-19.417-101.465-47.417c-7.391-3.452-19.372-3.452-26.761 0L133.33 159.454c-7.389 3.456-7.39 9.054 0 12.509l101.465 47.415c7.389 3.455 19.371 3.455 26.761 0l101.465-47.415c7.389-3.455 7.389-9.054 0-12.509z"/>
	<g fill="#999">
    <ellipse cx="359.756" cy="308.987" rx="15.223" ry="14.341" transform="rotate(-105.296 359.755 308.981)"/>
		<ellipse cx="319.278" cy="284.261" rx="15.223" ry="14.341" transform="rotate(-105.296 319.277 284.255)"/>
		<ellipse cx="278.79" cy="259.538" rx="15.221" ry="14.342" transform="rotate(-105.296 278.79 259.532)"/>
		<ellipse cx="186.009" cy="160.099" rx="17.896" ry="10.653"/>
		<ellipse cx="242.259" cy="135.809" rx="17.896" ry="10.653"/>
		<ellipse cx="257.599" cy="192.699" rx="17.896" ry="10.653"/>
		<ellipse cx="313.839" cy="168.409" rx="17.896" ry="10.653"/>
		<ellipse cx="221.799" cy="176.719" rx="17.896" ry="10.653"/>
		<ellipse cx="278.049" cy="152.429" rx="17.896" ry="10.653"/>
		<ellipse cx="142.981" cy="226.231" rx="15.369" ry="14.196" transform="rotate(-107.152 142.985 226.237)"/>
		<ellipse cx="213.443" cy="251.074" rx="15.37" ry="14.196" transform="rotate(-107.152 213.45 251.08)"/>
		<ellipse cx="136.02" cy="312.729" rx="15.369" ry="14.196" transform="rotate(-107.152 136.023 312.737)"/>
		<ellipse cx="173.51" cy="282.041" rx="15.37" ry="14.196" transform="rotate(-107.152 173.515 282.049)"/>
		<ellipse cx="206.16" cy="338.238" rx="15.369" ry="14.195" transform="rotate(-107.145 206.158 338.225)"/>
  </g>
</svg>
